<?xml version="1.0" encoding="UTF-8"?><svg id="a" xmlns="http://www.w3.org/2000/svg" width="628.84" height="363.27" xmlns:xlink="http://www.w3.org/1999/xlink" viewBox="0 0 628.84 363.27"><defs><clipPath id="b"><rect x="401.22" y="19.76" width="91.2" height="77.23" fill="none"/></clipPath><clipPath id="c"><path d="M420.64,19.93s-14.17,10.3-19.32,23.44c0,0,40.67,11.49,52.57,53.47,0,0,24.84-3.65,38.22-7.29,0,0-17.83-56.25-71.48-69.62Z" fill="none"/></clipPath><clipPath id="d"><path d="M420.64,19.93s-14.17,10.3-19.32,23.44c0,0,40.67,11.49,52.57,53.47,0,0,24.84-3.65,38.22-7.29,0,0-17.83-56.25-71.48-69.62Z" fill="none"/></clipPath><clipPath id="e"><rect x="507" y="61.2" width="86.69" height="40.25" transform="translate(31.64 282.43) rotate(-29.6)" fill="none"/></clipPath><clipPath id="f"><path d="M582.34,50.46s6.5,13.33,5.77,26.94c0,0-32.2-.03-54.37,35.95,0,0-16.15-9.95-24.3-16.88,0,0,31.01-47.71,72.89-46Z" fill="none"/></clipPath><clipPath id="g"><path d="M582.34,50.46s6.5,13.33,5.77,26.94c0,0-32.2-.03-54.37,35.95,0,0-16.15-9.95-24.3-16.88,0,0,31.01-47.71,72.89-46Z" fill="none"/></clipPath></defs><path d="M0,99.01c0-6.11,4.5-10.61,10.61-10.61s10.62,4.5,10.62,10.61-4.5,10.78-10.62,10.78S0,105.12,0,99.01ZM3.06,122.33h15.28v79.46H3.06v-79.46Z" fill="#3f9871"/><path d="M36.83,122.33h16.73l25.9,65.79,25.9-65.79h16.24l-33.13,79.46h-18.5l-33.13-79.46Z" fill="#3f9871"/><path d="M128.82,162.06c0-24.13,17.69-41.82,42.78-41.82s42.46,17.69,42.46,41.82v5.63h-69.16c2.25,14.16,12.87,22.04,26.7,22.04,10.29,0,17.53-3.22,22.2-10.13h16.89c-6.11,14.8-20.59,24.29-39.09,24.29-25.09,0-42.78-17.69-42.78-41.82ZM197.98,154.02c-3.06-12.71-13.51-19.62-26.38-19.62s-23.16,7.08-26.22,19.62h52.6Z" fill="#3f9871"/><path d="M229.82,160.45c0-26.54,15.76-40.21,39.25-40.21s39.25,13.51,39.25,40.21v41.34h-15.28v-41.34c0-17.21-9.49-26.06-23.97-26.06s-23.96,8.85-23.96,26.06v41.34h-15.28v-41.34Z" fill="#3f9871"/><path d="M327.28,171.71v-77.53h15.28v28.15h43.75v13.99h-43.75v35.39c0,12.55,6.59,18.01,16.57,18.01s16.73-5.31,16.73-18.01v-1.77h15.12v1.77c0,21.55-12.87,32.17-31.85,32.17s-31.85-10.62-31.85-32.17Z" fill="#3f9871"/><path d="M412.2,87.59h15.28v114.2h-15.28v-114.2Z" fill="#3f9871"/><path d="M446.14,162.7c0-24.93,17.69-42.46,42.94-42.46s42.3,17.05,42.3,42.46v39.08h-13.99v-17.37c-5.31,12.87-17.05,19.46-30.88,19.46-20.75,0-40.37-14.96-40.37-41.18ZM516.26,162.06c0-16.09-10.94-27.67-27.34-27.67s-27.34,11.58-27.34,27.67,10.94,27.66,27.34,27.66,27.34-11.58,27.34-27.66Z" fill="#3f9871"/><path d="M550.35,160.45c0-26.54,15.76-40.21,39.25-40.21s39.25,13.51,39.25,40.21v41.34h-15.28v-41.34c0-17.21-9.49-26.06-23.97-26.06s-23.96,8.85-23.96,26.06v41.34h-15.28v-41.34Z" fill="#3f9871"/><g clip-path="url(#b)"><g clip-path="url(#c)"><g clip-path="url(#d)"><path d="M521.91,27.15l-38.32,89.62-112.07-27.15L409.85,0l112.07,27.15Z" fill="#8d6dc2"/></g></g></g><g clip-path="url(#e)"><g clip-path="url(#f)"><g clip-path="url(#g)"><path d="M497.9,33.49l-2.71,90.73,100.92,4.95,2.72-90.73-100.93-4.94Z" fill="#f6c544"/></g></g></g><circle cx="504.06" cy="67.46" r="9.09" fill="#f47980"/><rect x="231.77" y="363.27" width="3.7" height="0" fill="none"/></svg>